# xmcd CD database file
#
# Track frame offsets:
#	150
#	19923
#	41971
#	58090
#	83761
#	100041
#	133791
#	154852
#	174786
#	206885
#	227561
#	244342
#	269059
#	291977
#	307858
#	331134
#
# Disc length: 4775 seconds
#
# Revision: 4
# Processed by: cddbd v1.5.2PL0 Copyright (c) Steve Scherf et al.
# Submitted via: CDex 1.51
#
DISCID=e412a510
DTITLE=Robert Glasper Experiment - Black Radio 2 [Japan Edition]
DYEAR=2013
DGENRE=Jazz
TTITLE0=Baby Tonight (Black Radio 2 Theme)/Mic Check 2
TTITLE1=I Stand Alone feat. Common and Patrick Stump
TTITLE2=What Are We Doing feat. Brandy
TTITLE3=Calls feat. Jill Scott
TTITLE4=Worries feat. Dwele
TTITLE5=Trust feat. Marsha Ambrosius
TTITLE6=Yet To Find feat. Anthony Hamilton
TTITLE7=You Own Me feat. Faith Evans
TTITLE8=Let It Ride feat. Norah Jones
TTITLE9=Persevere feat. Snoop Dogg, Lupe Fiasco and Luke James
TTITLE10=Somebody Else feat. Emeli Sande
TTITLE11=Jesus Children feat. Lalah Hathaway and Malcolm-Jamal Warner
TTITLE12=Big Girl Body feat. Eric Roberson
TTITLE13=I Don't Even Care feat. Macy Gray and Jean Grae
TTITLE14=Lovely Day
TTITLE15=Trust [Alternate Version] feat. Marsha Ambrosius and Common [Bonus Track for Japan]
EXTD=YEAR: 2013
EXTT0=
EXTT1=
EXTT2=
EXTT3=
EXTT4=
EXTT5=
EXTT6=
EXTT7=
EXTT8=
EXTT9=
EXTT10=
EXTT11=
EXTT12=
EXTT13=
EXTT14=
EXTT15=
PLAYORDER=
